<svg width="96" height="96" viewBox="0 0 96 96" fill="none" xmlns="http://www.w3.org/2000/svg">
<rect width="96" height="96" fill="white" fill-opacity="0.01" style="mix-blend-mode:multiply"/>
<path d="M78 66C75.8812 66.0104 73.8059 66.6018 72 67.71L62.73 58.41C64.887 55.3673 66.0456 51.7297 66.0456 48C66.0456 44.2703 64.887 40.6327 62.73 37.59L72 28.29C73.8059 29.3982 75.8812 29.9897 78 30C80.3734 30 82.6935 29.2962 84.6668 27.9776C86.6402 26.6591 88.1783 24.7849 89.0866 22.5922C89.9948 20.3995 90.2324 17.9867 89.7694 15.6589C89.3064 13.3311 88.1635 11.193 86.4853 9.51472C84.807 7.83649 82.6689 6.6936 80.3411 6.23058C78.0133 5.76756 75.6005 6.0052 73.4078 6.91345C71.2151 7.8217 69.3409 9.35977 68.0224 11.3332C66.7038 13.3066 66 15.6266 66 18C66.0104 20.1188 66.6018 22.1941 67.71 24L58.41 33.27C55.3673 31.113 51.7297 29.9544 48 29.9544C44.2703 29.9544 40.6327 31.113 37.59 33.27L28.29 24C29.3982 22.1941 29.9897 20.1188 30 18C30 15.6266 29.2962 13.3066 27.9776 11.3332C26.6591 9.35977 24.7849 7.8217 22.5922 6.91345C20.3995 6.0052 17.9867 5.76756 15.6589 6.23058C13.3311 6.6936 11.193 7.83649 9.51472 9.51472C7.83649 11.193 6.6936 13.3311 6.23058 15.6589C5.76756 17.9867 6.0052 20.3995 6.91345 22.5922C7.8217 24.7849 9.35977 26.6591 11.3332 27.9776C13.3066 29.2962 15.6266 30 18 30C20.1188 29.9897 22.1941 29.3982 24 28.29L33.27 37.59C31.113 40.6327 29.9544 44.2703 29.9544 48C29.9544 51.7297 31.113 55.3673 33.27 58.41L24 67.71C22.1941 66.6018 20.1188 66.0104 18 66C15.6266 66 13.3066 66.7038 11.3332 68.0224C9.35977 69.3409 7.8217 71.2151 6.91345 73.4078C6.0052 75.6005 5.76756 78.0133 6.23058 80.3411C6.6936 82.6689 7.83649 84.807 9.51472 86.4853C11.193 88.1635 13.3311 89.3064 15.6589 89.7694C17.9867 90.2324 20.3995 89.9948 22.5922 89.0866C24.7849 88.1783 26.6591 86.6402 27.9776 84.6668C29.2962 82.6935 30 80.3734 30 78C29.9897 75.8812 29.3982 73.8059 28.29 72L37.59 62.73C40.6327 64.887 44.2703 66.0456 48 66.0456C51.7297 66.0456 55.3673 64.887 58.41 62.73L67.71 72C66.6018 73.8059 66.0104 75.8812 66 78C66 80.3734 66.7038 82.6935 68.0224 84.6668C69.3409 86.6402 71.2151 88.1783 73.4078 89.0866C75.6005 89.9948 78.0133 90.2324 80.3411 89.7694C82.6689 89.3064 84.807 88.1635 86.4853 86.4853C88.1635 84.807 89.3064 82.6689 89.7694 80.3411C90.2324 78.0133 89.9948 75.6005 89.0866 73.4078C88.1783 71.2151 86.6402 69.3409 84.6668 68.0224C82.6935 66.7038 80.3734 66 78 66ZM78 12C79.1867 12 80.3467 12.3519 81.3334 13.0112C82.3201 13.6705 83.0891 14.6075 83.5433 15.7039C83.9974 16.8003 84.1162 18.0067 83.8847 19.1705C83.6532 20.3344 83.0818 21.4035 82.2426 22.2426C81.4035 23.0818 80.3344 23.6532 79.1705 23.8847C78.0067 24.1162 76.8003 23.9974 75.7039 23.5433C74.6075 23.0892 73.6705 22.3201 73.0112 21.3334C72.3519 20.3467 72 19.1867 72 18C72 16.4087 72.6321 14.8826 73.7574 13.7574C74.8826 12.6321 76.4087 12 78 12ZM12 18C12 16.8133 12.3519 15.6533 13.0112 14.6666C13.6705 13.6799 14.6075 12.9109 15.7039 12.4567C16.8003 12.0026 18.0067 11.8838 19.1705 12.1153C20.3344 12.3468 21.4035 12.9182 22.2426 13.7574C23.0818 14.5965 23.6532 15.6656 23.8847 16.8295C24.1162 17.9933 23.9974 19.1997 23.5433 20.2961C23.0892 21.3925 22.3201 22.3295 21.3334 22.9888C20.3467 23.6481 19.1867 24 18 24C16.4087 24 14.8826 23.3679 13.7574 22.2426C12.6321 21.1174 12 19.5913 12 18ZM18 84C16.8133 84 15.6533 83.6481 14.6666 82.9888C13.6799 82.3295 12.9109 81.3925 12.4567 80.2961C12.0026 79.1997 11.8838 77.9933 12.1153 76.8295C12.3468 75.6656 12.9182 74.5965 13.7574 73.7574C14.5965 72.9182 15.6656 72.3468 16.8295 72.1153C17.9933 71.8838 19.1997 72.0026 20.2961 72.4567C21.3925 72.9109 22.3295 73.6799 22.9888 74.6666C23.6481 75.6533 24 76.8133 24 78C24 79.5913 23.3679 81.1174 22.2426 82.2426C21.1174 83.3679 19.5913 84 18 84ZM48 60C45.6266 60 43.3066 59.2962 41.3332 57.9776C39.3598 56.6591 37.8217 54.7849 36.9134 52.5922C36.0052 50.3995 35.7676 47.9867 36.2306 45.6589C36.6936 43.3311 37.8365 41.193 39.5147 39.5147C41.193 37.8365 43.3311 36.6936 45.6589 36.2306C47.9867 35.7676 50.3995 36.0052 52.5922 36.9134C54.7849 37.8217 56.6591 39.3598 57.9776 41.3332C59.2962 43.3066 60 45.6266 60 48C60 51.1826 58.7357 54.2348 56.4853 56.4853C54.2348 58.7357 51.1826 60 48 60ZM78 84C76.8133 84 75.6533 83.6481 74.6666 82.9888C73.6799 82.3295 72.9109 81.3925 72.4567 80.2961C72.0026 79.1997 71.8838 77.9933 72.1153 76.8295C72.3468 75.6656 72.9182 74.5965 73.7574 73.7574C74.5965 72.9182 75.6656 72.3468 76.8295 72.1153C77.9933 71.8838 79.1997 72.0026 80.2961 72.4567C81.3925 72.9109 82.3295 73.6799 82.9888 74.6666C83.6481 75.6533 84 76.8133 84 78C84 79.5913 83.3679 81.1174 82.2426 82.2426C81.1174 83.3679 79.5913 84 78 84Z" fill="#161616"/>
</svg>
